# xmcd
# 
# Track frame offsets:
#     150
#     12428
#     25331
#     40603
#     55221
#     68180
#     81222
#     95854
#     107646
#     121347
#     133354
#     145974
#     156430
#     167226
#     179957
#     191385
#     205494
#     217590
#     230390
#     243270
#     257859
#     270353
#     281950
#     294430
#     309237
#     321635
# 
# Disc length: 4420
# 
# Revision: 1
# Processed by: cddbd v1.5.2PL0 Copyright (c) Steve Scherf et al.
# Submitted via: fre:ac v1.0.31
# 
DISCID=9011421a
DTITLE=Elmore James - Complete Singles A's and B's 1951-62 Dics 1
DYEAR=2015
DGENRE=Blues
TTITLE0=Dust My Broom (1951)
TTITLE1=Catfish Blues (1951)
TTITLE2=I Held My Baby Last Night (1952)
TTITLE3=I Believe (1952)
TTITLE4=Sinful Woman (1953)
TTITLE5=Baby, What's Wrong (1953)
TTITLE6=Dumb Woman Blues (1954)
TTITLE7=Sax-Ony Boogie (1954)
TTITLE8=She Just Won't Do Right (1953)
TTITLE9=Country Boogie (1953)
TTITLE10=Early In The Morning (1953)
TTITLE11=Hawaiian Boogie (Part 2) (1953)
TTITLE12=Can't Stop Lovin' (1953)
TTITLE13=Make A Little Love (1953)
TTITLE14=Strange Kinda Feeling (1953)
TTITLE15=Please Find My Baby (1953)
TTITLE16=Make My Dreams Come True (1954)
TTITLE17=Hand In Hand (1954)
TTITLE18=Sho 'Nuff I Do (1954)
TTITLE19=1839 Blues (1954)
TTITLE20=Dark And Dreary (1954)
TTITLE21=Rock My Baby Right (1954)
TTITLE22=Standing At The Crossroads (1954)
TTITLE23=Sunnyland (1954)
TTITLE24=Late Hours At Midnight (1955)
TTITLE25=Way You Treat Me (1955)
EXTD=
EXTT0=
EXTT1=
EXTT2=
EXTT3=
EXTT4=
EXTT5=
EXTT6=
EXTT7=
EXTT8=
EXTT9=
EXTT10=
EXTT11=
EXTT12=
EXTT13=
EXTT14=
EXTT15=
EXTT16=
EXTT17=
EXTT18=
EXTT19=
EXTT20=
EXTT21=
EXTT22=
EXTT23=
EXTT24=
EXTT25=
PLAYORDER=
